<svg width="24" height="24" viewBox="0 0 24 24" fill="none" xmlns="http://www.w3.org/2000/svg">
<path d="M21.04 7.96999H16.25L11.87 1.40999C11.68 1.12999 11.36 0.98999 11.04 0.98999C10.72 0.98999 10.4 1.12999 10.21 1.41999L5.82998 7.96999H1.03998C0.489978 7.96999 0.039978 8.41999 0.039978 8.96999C0.039978 9.05999 0.049978 9.14999 0.079978 9.23999L2.61998 18.51C2.84998 19.35 3.61998 19.97 4.53998 19.97H17.54C18.46 19.97 19.23 19.35 19.47 18.51L22.01 9.23999L22.04 8.96999C22.04 8.41999 21.59 7.96999 21.04 7.96999ZM11.04 3.76999L13.84 7.96999H8.23998L11.04 3.76999ZM17.54 17.97L4.54998 17.98L2.34998 9.96999H19.74L17.54 17.97Z" fill="#323232"/>
</svg>
