<svg width="388" height="111" viewBox="0 0 388 111" fill="none" xmlns="http://www.w3.org/2000/svg">
<rect width="1.24349" height="109.072" transform="matrix(1 -0.000404832 0.000291799 1 0 1.1333)" fill="black"/>
<rect width="1.24349" height="109.072" transform="matrix(1 -0.000404832 0.000291799 1 267.35 1.02441)" fill="black"/>
<rect width="1.24349" height="109.072" transform="matrix(1 -0.000404832 0.000291799 1 298.438 1.01074)" fill="black"/>
<rect width="1.24349" height="109.072" transform="matrix(1 -0.000404832 0.000291799 1 131.81 1.0791)" fill="black"/>
<rect width="1.24349" height="109.072" transform="matrix(1 -0.000404832 0.000291799 1 28.6006 1.12061)" fill="black"/>
<rect width="1.24349" height="109.072" transform="matrix(1 -0.000404832 0.000291799 1 333.256 0.998047)" fill="black"/>
<rect width="1.24349" height="109.072" transform="matrix(1 -0.000404832 0.000291799 1 139.271 1.07666)" fill="black"/>
<rect width="1.24349" height="109.072" transform="matrix(1 -0.000404832 0.000291799 1 157.925 1.06836)" fill="black"/>
<rect width="1.24349" height="109.072" transform="matrix(1 -0.000404832 0.000291799 1 165.385 1.0647)" fill="black"/>
<rect width="1.24349" height="109.072" transform="matrix(1 -0.000404832 0.000291799 1 185.279 1.05811)" fill="black"/>
<rect width="1.24349" height="109.072" transform="matrix(1 -0.000404832 0.000291799 1 201.445 1.05078)" fill="black"/>
<rect width="1.24349" height="109.072" transform="matrix(1 -0.000404832 0.000291799 1 220.098 1.04272)" fill="black"/>
<rect width="1.24349" height="109.072" transform="matrix(1 -0.000404832 0.000291799 1 236.264 1.03662)" fill="black"/>
<rect width="1.24349" height="109.072" transform="matrix(1 -0.000404832 0.000291799 1 44.7656 1.1145)" fill="black"/>
<rect width="1.24349" height="109.072" transform="matrix(1 -0.000404832 0.000291799 1 87.0439 1.09668)" fill="black"/>
<rect width="1.24349" height="109.072" transform="matrix(1 -0.000404832 0.000291799 1 386.726 0.97583)" fill="black"/>
<rect width="1.24349" height="109.072" transform="matrix(1 -0.000404832 0.000291799 1 359.368 0.987305)" fill="black"/>
<rect width="1.24349" height="109.072" transform="matrix(1 -0.000404832 0.000291799 1 64.6611 1.10645)" fill="black"/>
<rect width="1.24349" height="109.072" transform="matrix(1 -0.000404832 0.000291799 1 106.939 1.08862)" fill="black"/>
<rect width="1.24349" height="109.072" transform="matrix(1 -0.000404832 0.000291799 1 371.804 0.981934)" fill="black"/>
<rect width="1.24349" height="109.072" transform="matrix(1 -0.000404832 0.000291799 1 74.6094 1.10205)" fill="black"/>
<rect width="1.24349" height="109.072" transform="matrix(1 -0.000404832 0.000291799 1 116.889 1.08521)" fill="black"/>
<rect width="1.24349" height="109.072" transform="matrix(1 -0.000404832 0.000291799 1 381.751 0.977295)" fill="black"/>
<rect width="2.48698" height="109.072" transform="matrix(1 -0.000404832 0.000291799 1 2.4873 1.13086)" fill="black"/>
<rect width="2.48698" height="109.072" transform="matrix(1 -0.000404832 0.000291799 1 293.464 1.01245)" fill="black"/>
<rect width="2.48698" height="109.072" transform="matrix(1 -0.000404832 0.000291799 1 309.629 1.00659)" fill="black"/>
<rect width="4.97396" height="109.072" transform="matrix(1 -0.000404832 0.000291799 1 314.603 1.00488)" fill="black"/>
<rect width="2.48698" height="109.072" transform="matrix(1 -0.000404832 0.000291799 1 41.0352 1.11646)" fill="black"/>
<rect width="2.48698" height="109.072" transform="matrix(1 -0.000404832 0.000291799 1 344.447 0.993652)" fill="black"/>
<rect width="2.48698" height="109.072" transform="matrix(1 -0.000404832 0.000291799 1 170.357 1.06299)" fill="black"/>
<rect width="2.48698" height="109.072" transform="matrix(1 -0.000404832 0.000291799 1 223.828 1.04077)" fill="black"/>
<rect width="2.48698" height="109.072" transform="matrix(1 -0.000404832 0.000291799 1 58.4434 1.10938)" fill="black"/>
<rect width="2.48698" height="109.072" transform="matrix(1 -0.000404832 0.000291799 1 100.722 1.09131)" fill="black"/>
<rect width="2.48698" height="109.072" transform="matrix(1 -0.000404832 0.000291799 1 134.297 1.07837)" fill="black"/>
<rect width="2.48698" height="109.072" transform="matrix(1 -0.000404832 0.000291799 1 23.626 1.12207)" fill="black"/>
<rect width="2.48698" height="109.072" transform="matrix(1 -0.000404832 0.000291799 1 329.524 0.998535)" fill="black"/>
<rect width="3.73047" height="109.072" transform="matrix(1 -0.000404832 0.000291799 1 287.246 1.01636)" fill="black"/>
<rect width="3.73047" height="109.072" transform="matrix(1 -0.000404832 0.000291799 1 33.5752 1.1189)" fill="black"/>
<rect width="3.73047" height="109.072" transform="matrix(1 -0.000404832 0.000291799 1 336.985 0.996094)" fill="black"/>
<rect width="3.73047" height="109.072" transform="matrix(1 -0.000404832 0.000291799 1 151.707 1.07129)" fill="black"/>
<rect width="3.73047" height="109.072" transform="matrix(1 -0.000404832 0.000291799 1 271.081 1.02246)" fill="black"/>
<rect width="3.73047" height="109.072" transform="matrix(1 -0.000404832 0.000291799 1 196.471 1.05371)" fill="black"/>
<rect width="3.73047" height="109.072" transform="matrix(1 -0.000404832 0.000291799 1 160.41 1.06763)" fill="black"/>
<rect width="7.46094" height="109.072" transform="matrix(1 -0.000404832 0.000291799 1 277.299 1.021)" fill="black"/>
<rect width="7.46094" height="109.072" transform="matrix(1 -0.000404832 0.000291799 1 257.403 1.02759)" fill="black"/>
<rect width="7.46094" height="109.072" transform="matrix(1 -0.000404832 0.000291799 1 211.394 1.04761)" fill="black"/>
<rect width="7.46094" height="109.072" transform="matrix(1 -0.000404832 0.000291799 1 8.7041 1.12817)" fill="black"/>
<rect width="7.46094" height="109.072" transform="matrix(1 -0.000404832 0.000291799 1 46.0088 1.1145)" fill="black"/>
<rect width="7.46094" height="109.072" transform="matrix(1 -0.000404832 0.000291799 1 92.0186 1.09497)" fill="black"/>
<rect width="7.46094" height="109.072" transform="matrix(1 -0.000404832 0.000291799 1 300.925 1.01001)" fill="black"/>
<rect width="7.46094" height="109.072" transform="matrix(1 -0.000404832 0.000291799 1 361.855 0.986572)" fill="black"/>
<rect width="4.97396" height="109.072" transform="matrix(1 -0.000404832 0.000291799 1 189.011 1.05615)" fill="black"/>
<rect width="4.97396" height="109.072" transform="matrix(1 -0.000404832 0.000291799 1 68.3916 1.10596)" fill="black"/>
<rect width="4.97396" height="109.072" transform="matrix(1 -0.000404832 0.000291799 1 110.671 1.08813)" fill="black"/>
<rect width="4.97396" height="109.072" transform="matrix(1 -0.000404832 0.000291799 1 375.534 0.980225)" fill="black"/>
<rect width="4.97396" height="109.072" transform="matrix(1 -0.000404832 0.000291799 1 348.178 0.991699)" fill="black"/>
<rect width="4.97396" height="109.072" transform="matrix(1 -0.000404832 0.000291799 1 228.802 1.03906)" fill="black"/>
<rect width="4.97396" height="109.072" transform="matrix(1 -0.000404832 0.000291799 1 243.724 1.03418)" fill="black"/>
<rect width="4.97396" height="109.072" transform="matrix(1 -0.000404832 0.000291799 1 249.941 1.03125)" fill="black"/>
<rect width="4.97396" height="109.072" transform="matrix(1 -0.000404832 0.000291799 1 205.176 1.05029)" fill="black"/>
<rect width="3.73047" height="109.072" transform="matrix(1 -0.000404832 0.000291799 1 120.617 1.0835)" fill="black"/>
<rect width="3.73047" height="109.072" transform="matrix(1 -0.000404832 0.000291799 1 125.593 1.08179)" fill="black"/>
</svg>
