<svg width="173" height="38" viewBox="0 0 173 38" fill="none" xmlns="http://www.w3.org/2000/svg">
<path d="M2.54 6.96H5.76L7.86 12.76C7.99333 13.1467 8.12 13.5467 8.24 13.96C8.36 14.36 8.48667 14.76 8.62 15.16H8.7C8.83333 14.76 8.95333 14.36 9.06 13.96C9.18 13.5467 9.30667 13.1467 9.44 12.76L11.5 6.96H14.7V20H12.02V15.22C12.02 14.9 12.0333 14.5467 12.06 14.16C12.0867 13.7733 12.12 13.3867 12.16 13C12.2 12.6 12.24 12.2133 12.28 11.84C12.32 11.4533 12.36 11.1 12.4 10.78H12.32L11.26 13.88L9.4 18.86H7.78L5.92 13.88L4.88 10.78H4.8C4.84 11.1 4.88 11.4533 4.92 11.84C4.96 12.2133 5 12.6 5.04 13C5.08 13.3867 5.11333 13.7733 5.14 14.16C5.16667 14.5467 5.18 14.9 5.18 15.22V20H2.54V6.96ZM23.5144 20.24C21.821 20.24 20.5277 19.74 19.6344 18.74C18.741 17.74 18.2944 16.1467 18.2944 13.96V6.96H21.2544V14.26C21.2544 15.54 21.4477 16.4333 21.8344 16.94C22.221 17.4467 22.781 17.7 23.5144 17.7C24.2477 17.7 24.8144 17.4467 25.2144 16.94C25.6144 16.4333 25.8144 15.54 25.8144 14.26V6.96H28.6544V13.96C28.6544 16.1467 28.2144 17.74 27.3344 18.74C26.4677 19.74 25.1944 20.24 23.5144 20.24ZM36.0598 20.24C35.2065 20.24 34.3532 20.0867 33.4998 19.78C32.6598 19.46 31.9065 18.9867 31.2398 18.36L32.9198 16.34C33.3865 16.74 33.8998 17.0667 34.4598 17.32C35.0332 17.5733 35.5932 17.7 36.1398 17.7C36.7532 17.7 37.2065 17.5867 37.4998 17.36C37.8065 17.1333 37.9598 16.8267 37.9598 16.44C37.9598 16.24 37.9132 16.0667 37.8198 15.92C37.7398 15.7733 37.6132 15.6467 37.4398 15.54C37.2798 15.42 37.0798 15.3133 36.8398 15.22C36.6132 15.1133 36.3598 15 36.0798 14.88L34.3798 14.16C34.0465 14.0267 33.7198 13.8533 33.3998 13.64C33.0932 13.4267 32.8132 13.18 32.5598 12.9C32.3198 12.6067 32.1265 12.2733 31.9798 11.9C31.8332 11.5133 31.7598 11.08 31.7598 10.6C31.7598 10.0667 31.8732 9.56667 32.0998 9.1C32.3265 8.62 32.6465 8.20667 33.0598 7.86C33.4732 7.5 33.9598 7.22 34.5198 7.02C35.0932 6.82 35.7198 6.72 36.3998 6.72C37.1598 6.72 37.9065 6.86667 38.6398 7.16C39.3865 7.45333 40.0398 7.88 40.5998 8.44L39.0998 10.3C38.6732 9.96667 38.2465 9.71333 37.8198 9.54C37.3932 9.35333 36.9198 9.26 36.3998 9.26C35.8932 9.26 35.4865 9.36667 35.1798 9.58C34.8865 9.78 34.7398 10.0667 34.7398 10.44C34.7398 10.64 34.7865 10.8133 34.8798 10.96C34.9865 11.0933 35.1265 11.22 35.2998 11.34C35.4865 11.4467 35.6998 11.5533 35.9398 11.66C36.1798 11.7533 36.4398 11.86 36.7198 11.98L38.3998 12.66C39.1998 12.98 39.8265 13.42 40.2798 13.98C40.7465 14.54 40.9798 15.28 40.9798 16.2C40.9798 16.7467 40.8665 17.2667 40.6398 17.76C40.4265 18.24 40.1065 18.6667 39.6798 19.04C39.2665 19.4 38.7532 19.6933 38.1398 19.92C37.5265 20.1333 36.8332 20.24 36.0598 20.24ZM43.7931 6.96H46.7331V20H43.7931V6.96ZM55.8488 20.24C55.0221 20.24 54.2421 20.1 53.5088 19.82C52.7754 19.5267 52.1288 19.1 51.5688 18.54C51.0221 17.98 50.5888 17.2867 50.2688 16.46C49.9488 15.62 49.7888 14.6533 49.7888 13.56C49.7888 12.48 49.9554 11.52 50.2888 10.68C50.6221 9.82667 51.0688 9.10667 51.6288 8.52C52.1888 7.93333 52.8421 7.48667 53.5888 7.18C54.3354 6.87333 55.1221 6.72 55.9488 6.72C56.7888 6.72 57.5421 6.89333 58.2088 7.24C58.8754 7.57333 59.4288 7.96667 59.8688 8.42L58.3088 10.3C57.9754 9.99333 57.6221 9.74667 57.2488 9.56C56.8888 9.36 56.4754 9.26 56.0088 9.26C55.5688 9.26 55.1488 9.36 54.7488 9.56C54.3621 9.74667 54.0221 10.02 53.7288 10.38C53.4488 10.74 53.2221 11.18 53.0488 11.7C52.8888 12.22 52.8088 12.8067 52.8088 13.46C52.8088 14.8067 53.0954 15.8533 53.6688 16.6C54.2421 17.3333 55.0088 17.7 55.9688 17.7C56.5021 17.7 56.9754 17.5867 57.3888 17.36C57.8154 17.12 58.1888 16.8267 58.5088 16.48L60.0688 18.32C58.9754 19.6 57.5688 20.24 55.8488 20.24ZM68.1694 14.6L67.8694 13.4C67.6827 12.7467 67.5027 12.0533 67.3294 11.32C67.156 10.5867 66.9827 9.88 66.8094 9.2H66.7294C66.5694 9.89333 66.4027 10.6067 66.2294 11.34C66.0694 12.06 65.896 12.7467 65.7094 13.4L65.3894 14.6H68.1694ZM68.7694 16.9H64.7894L63.9894 20H60.9894L65.0694 6.96H68.6094L72.6894 20H69.5694L68.7694 16.9ZM74.7142 6.96H77.6542V17.52H82.8142V20H74.7142V6.96ZM92.8097 9.44H89.2297V6.96H99.3497V9.44H95.7697V20H92.8097V9.44ZM101.983 6.96H104.923V11.98H109.423V6.96H112.383V20H109.423V14.56H104.923V20H101.983V6.96ZM116.06 6.96H124.22V9.44H119V12.06H123.44V14.52H119V17.52H124.42V20H116.06V6.96ZM133.137 14.6L132.837 13.4C132.65 12.7467 132.47 12.0533 132.297 11.32C132.123 10.5867 131.95 9.88 131.777 9.2H131.697C131.537 9.89333 131.37 10.6067 131.197 11.34C131.037 12.06 130.863 12.7467 130.677 13.4L130.357 14.6H133.137ZM133.737 16.9H129.757L128.957 20H125.957L130.037 6.96H133.577L137.657 20H134.537L133.737 16.9ZM140.757 9.44H137.177V6.96H147.297V9.44H143.717V20H140.757V9.44ZM149.93 6.96H158.09V9.44H152.87V12.06H157.31V14.52H152.87V17.52H158.29V20H149.93V6.96ZM164.427 12.96H165.947C166.72 12.96 167.307 12.8 167.707 12.48C168.12 12.1467 168.327 11.66 168.327 11.02C168.327 10.38 168.12 9.93333 167.707 9.68C167.307 9.42667 166.72 9.3 165.947 9.3H164.427V12.96ZM168.547 20L166.047 15.3H164.427V20H161.487V6.96H166.187C166.88 6.96 167.527 7.02667 168.127 7.16C168.74 7.29333 169.274 7.52 169.727 7.84C170.18 8.14667 170.54 8.56 170.807 9.08C171.074 9.6 171.207 10.2467 171.207 11.02C171.207 11.98 170.994 12.7733 170.567 13.4C170.154 14.0133 169.594 14.4733 168.887 14.78L171.847 20H168.547Z" fill="black"/>
<path d="M110.358 34V24.774H111.002V34H110.358ZM113.721 34V24.774H114.393L118.285 31.284L119.321 33.118H119.377C119.368 32.67 119.349 32.222 119.321 31.774C119.303 31.326 119.293 30.878 119.293 30.43V24.774H119.909V34H119.237L115.345 27.49L114.309 25.656H114.253C114.272 26.0947 114.291 26.5287 114.309 26.958C114.328 27.3873 114.337 27.826 114.337 28.274V34H113.721ZM128.798 34.168C128.005 34.168 127.31 33.972 126.712 33.58C126.124 33.188 125.662 32.6327 125.326 31.914C125 31.1953 124.836 30.346 124.836 29.366C124.836 28.386 125.004 27.5413 125.34 26.832C125.686 26.1227 126.162 25.5767 126.768 25.194C127.384 24.802 128.098 24.606 128.91 24.606C129.536 24.606 130.049 24.7273 130.45 24.97C130.861 25.2033 131.188 25.4507 131.43 25.712L131.052 26.146C130.819 25.8847 130.53 25.6607 130.184 25.474C129.848 25.2873 129.428 25.194 128.924 25.194C128.224 25.194 127.618 25.3667 127.104 25.712C126.591 26.048 126.194 26.5287 125.914 27.154C125.644 27.77 125.508 28.5073 125.508 29.366C125.508 30.2153 125.639 30.9573 125.9 31.592C126.162 32.2267 126.54 32.7167 127.034 33.062C127.538 33.4073 128.14 33.58 128.84 33.58C129.26 33.58 129.652 33.5193 130.016 33.398C130.39 33.2767 130.688 33.104 130.912 32.88V30.01H128.7V29.464H131.528V33.118C131.239 33.426 130.861 33.678 130.394 33.874C129.937 34.07 129.405 34.168 128.798 34.168ZM133.901 34V24.774H136.043C136.995 24.774 137.779 24.9653 138.395 25.348C139.011 25.7213 139.468 26.2487 139.767 26.93C140.075 27.6113 140.229 28.4187 140.229 29.352C140.229 30.2853 140.075 31.102 139.767 31.802C139.468 32.4927 139.011 33.034 138.395 33.426C137.779 33.8087 137 34 136.057 34H133.901ZM134.545 33.454H135.973C136.813 33.454 137.494 33.2813 138.017 32.936C138.549 32.5813 138.936 32.096 139.179 31.48C139.431 30.864 139.557 30.1547 139.557 29.352C139.557 28.5493 139.431 27.8493 139.179 27.252C138.936 26.6453 138.549 26.174 138.017 25.838C137.494 25.4927 136.813 25.32 135.973 25.32H134.545V33.454ZM143.487 28.568L142.899 30.29H146.175L145.587 28.568C145.401 28.0173 145.223 27.49 145.055 26.986C144.887 26.482 144.724 25.9453 144.565 25.376H144.509C144.351 25.9453 144.187 26.482 144.019 26.986C143.851 27.49 143.674 28.0173 143.487 28.568ZM140.967 34L144.215 24.774H144.859L148.107 34H147.435L146.357 30.836H142.703L141.611 34H140.967ZM149.583 34V24.774H150.255L154.147 31.284L155.183 33.118H155.239C155.229 32.67 155.211 32.222 155.183 31.774C155.164 31.326 155.155 30.878 155.155 30.43V24.774H155.771V34H155.099L151.207 27.49L150.171 25.656H150.115C150.133 26.0947 150.152 26.5287 150.171 26.958C150.189 27.3873 150.199 27.826 150.199 28.274V34H149.583ZM152.565 24.116L152.285 23.794L154.035 22.072L154.427 22.534L152.565 24.116ZM160.891 34.168C160.219 34.168 159.622 34.0373 159.099 33.776C158.576 33.5147 158.133 33.1833 157.769 32.782L158.189 32.334C158.525 32.7073 158.926 33.0107 159.393 33.244C159.86 33.468 160.359 33.58 160.891 33.58C161.6 33.58 162.16 33.4073 162.571 33.062C162.982 32.7167 163.187 32.2733 163.187 31.732C163.187 31.3493 163.112 31.0413 162.963 30.808C162.814 30.5747 162.613 30.3833 162.361 30.234C162.118 30.0753 161.843 29.9307 161.535 29.8L160.135 29.17C159.874 29.0487 159.594 28.8993 159.295 28.722C159.006 28.5353 158.758 28.2973 158.553 28.008C158.357 27.7093 158.259 27.3313 158.259 26.874C158.259 26.426 158.376 26.034 158.609 25.698C158.842 25.3527 159.16 25.0867 159.561 24.9C159.972 24.704 160.434 24.606 160.947 24.606C161.498 24.606 161.992 24.718 162.431 24.942C162.87 25.1567 163.229 25.4133 163.509 25.712L163.145 26.132C162.874 25.852 162.557 25.628 162.193 25.46C161.829 25.2827 161.414 25.194 160.947 25.194C160.34 25.194 159.846 25.3433 159.463 25.642C159.09 25.9407 158.903 26.342 158.903 26.846C158.903 27.2007 158.987 27.49 159.155 27.714C159.332 27.938 159.542 28.12 159.785 28.26C160.037 28.4 160.275 28.5213 160.499 28.624L161.899 29.24C162.244 29.3893 162.562 29.5667 162.851 29.772C163.15 29.968 163.388 30.22 163.565 30.528C163.752 30.8267 163.845 31.214 163.845 31.69C163.845 32.1567 163.724 32.5813 163.481 32.964C163.238 33.3373 162.893 33.6313 162.445 33.846C162.006 34.0607 161.488 34.168 160.891 34.168ZM165.784 34V24.774H166.428V29.898H166.456L170.922 24.774H171.692L168.752 28.19L172.098 34H171.356L168.304 28.68L166.428 30.822V34H165.784Z" fill="black"/>
<line x1="98.7763" y1="12.2835" x2="90.7763" y2="17.1219" stroke="white" stroke-width="3"/>
<line x1="8.97464" y1="9.14021" x2="0.974645" y2="15.9786" stroke="white" stroke-width="3"/>
</svg>
